<?xml version="1.0" encoding="UTF-8" standalone="no"?>
<!DOCTYPE svg PUBLIC "-//W3C//DTD SVG 1.1//EN"
 "http://www.w3.org/Graphics/SVG/1.1/DTD/svg11.dtd">
<!-- Generated by graphviz version 2.40.1 (20161225.0304)
 -->
<!-- Title: dependencies Pages: 1 -->
<svg width="632pt" height="284pt"
 viewBox="0.00 0.00 632.00 284.00" xmlns="http://www.w3.org/2000/svg" xmlns:xlink="http://www.w3.org/1999/xlink">
<g id="graph0" class="graph" transform="scale(1 1) rotate(0) translate(4 280)">
<title>dependencies</title>
<polygon fill="#ffffff" stroke="transparent" points="-4,4 -4,-280 628,-280 628,4 -4,4"/>
<text text-anchor="start" x="291.0091" y="-42.4" font-family="sans-serif" font-weight="bold" font-size="14.00" fill="#000000">Legend</text>
<polygon fill="#ffffb3" stroke="transparent" points="78,-10 78,-30 98,-30 98,-10 78,-10"/>
<text text-anchor="start" x="101.629" y="-15.4" font-family="sans-serif" font-size="14.00" fill="#000000"> &#160;Declarations</text>
<polygon fill="#8dd3c7" stroke="transparent" points="191,-10 191,-30 211,-30 211,-10 191,-10"/>
<text text-anchor="start" x="214.7251" y="-15.4" font-family="sans-serif" font-size="14.00" fill="#000000"> &#160;Module</text>
<polygon fill="#80b1d3" stroke="transparent" points="277,-10 277,-30 297,-30 297,-10 277,-10"/>
<text text-anchor="start" x="300.7812" y="-15.4" font-family="sans-serif" font-size="14.00" fill="#000000"> &#160;Bootstrap</text>
<polygon fill="#fdb462" stroke="transparent" points="374,-10 374,-30 394,-30 394,-10 374,-10"/>
<text text-anchor="start" x="397.6732" y="-15.4" font-family="sans-serif" font-size="14.00" fill="#000000"> &#160;Providers</text>
<polygon fill="#fb8072" stroke="transparent" points="470,-10 470,-30 490,-30 490,-10 470,-10"/>
<text text-anchor="start" x="493.7258" y="-15.4" font-family="sans-serif" font-size="14.00" fill="#000000"> &#160;Exports</text>
<g id="clust1" class="cluster">
<title>cluster_StMonacoEditorModule</title>
<polygon fill="none" stroke="#000000" stroke-dasharray="1,5" points="8,-70 8,-268 616,-268 616,-70 8,-70"/>
</g>
<g id="clust2" class="cluster">
<title>cluster_StMonacoEditorModule_declarations</title>
<polygon fill="none" stroke="#000000" points="21,-78 21,-130 602,-130 602,-78 21,-78"/>
</g>
<g id="clust7" class="cluster">
<title>cluster_StMonacoEditorModule_exports</title>
<polygon fill="none" stroke="#000000" points="16,-208 16,-260 608,-260 608,-208 16,-208"/>
</g>
<!-- StEditorInputComponent -->
<g id="node1" class="node">
<title>StEditorInputComponent</title>
<polygon fill="#ffffb3" stroke="#000000" points="593.5518,-122 436.4482,-122 436.4482,-86 593.5518,-86 593.5518,-122"/>
<text text-anchor="middle" x="515" y="-99.8" font-family="Times,serif" font-size="14.00" fill="#000000">StEditorInputComponent</text>
</g>
<!-- StMonacoEditorModule -->
<g id="node4" class="node">
<title>StMonacoEditorModule</title>
<polygon fill="#8dd3c7" stroke="#000000" points="396.0912,-187 393.0912,-191 372.0912,-191 369.0912,-187 243.9088,-187 243.9088,-151 396.0912,-151 396.0912,-187"/>
<text text-anchor="middle" x="320" y="-164.8" font-family="Times,serif" font-size="14.00" fill="#000000">StMonacoEditorModule</text>
</g>
<!-- StEditorInputComponent&#45;&gt;StMonacoEditorModule -->
<g id="edge1" class="edge">
<title>StEditorInputComponent&#45;&gt;StMonacoEditorModule</title>
<path fill="none" stroke="#000000" d="M542.0085,-122.0225C542.0085,-139.3734 542.0085,-163 542.0085,-163 542.0085,-163 406.0921,-163 406.0921,-163"/>
<polygon fill="#000000" stroke="#000000" points="406.0922,-159.5001 396.0921,-163 406.0921,-166.5001 406.0922,-159.5001"/>
</g>
<!-- StMonacoDiffEditorComponent -->
<g id="node2" class="node">
<title>StMonacoDiffEditorComponent</title>
<polygon fill="#ffffb3" stroke="#000000" points="418.6923,-122 221.3077,-122 221.3077,-86 418.6923,-86 418.6923,-122"/>
<text text-anchor="middle" x="320" y="-99.8" font-family="Times,serif" font-size="14.00" fill="#000000">StMonacoDiffEditorComponent</text>
</g>
<!-- StMonacoDiffEditorComponent&#45;&gt;StMonacoEditorModule -->
<g id="edge2" class="edge">
<title>StMonacoDiffEditorComponent&#45;&gt;StMonacoEditorModule</title>
<path fill="none" stroke="#000000" d="M320,-122.1061C320,-122.1061 320,-140.991 320,-140.991"/>
<polygon fill="#000000" stroke="#000000" points="316.5001,-140.9909 320,-150.991 323.5001,-140.991 316.5001,-140.9909"/>
</g>
<!-- StMonacoEditorComponent -->
<g id="node3" class="node">
<title>StMonacoEditorComponent</title>
<polygon fill="#ffffb3" stroke="#000000" points="202.8738,-122 29.1262,-122 29.1262,-86 202.8738,-86 202.8738,-122"/>
<text text-anchor="middle" x="116" y="-99.8" font-family="Times,serif" font-size="14.00" fill="#000000">StMonacoEditorComponent</text>
</g>
<!-- StMonacoEditorComponent&#45;&gt;StMonacoEditorModule -->
<g id="edge3" class="edge">
<title>StMonacoEditorComponent&#45;&gt;StMonacoEditorModule</title>
<path fill="none" stroke="#000000" d="M144.1456,-122.0225C144.1456,-139.3734 144.1456,-163 144.1456,-163 144.1456,-163 233.8905,-163 233.8905,-163"/>
<polygon fill="#000000" stroke="#000000" points="233.8905,-166.5001 243.8905,-163 233.8905,-159.5001 233.8905,-166.5001"/>
</g>
<!-- StEditorInputComponent  -->
<g id="node5" class="node">
<title>StEditorInputComponent </title>
<polygon fill="#fb8072" stroke="#000000" points="599.5512,-252 438.4488,-252 438.4488,-216 599.5512,-216 599.5512,-252"/>
<text text-anchor="middle" x="519" y="-229.8" font-family="Times,serif" font-size="14.00" fill="#000000">StEditorInputComponent </text>
</g>
<!-- StMonacoEditorModule&#45;&gt;StEditorInputComponent  -->
<g id="edge4" class="edge">
<title>StMonacoEditorModule&#45;&gt;StEditorInputComponent </title>
<path fill="none" stroke="#000000" stroke-dasharray="5,2" d="M396.158,-175C441.4856,-175 490.2415,-175 490.2415,-175 490.2415,-175 490.2415,-205.9775 490.2415,-205.9775"/>
<polygon fill="#000000" stroke="#000000" points="486.7416,-205.9774 490.2415,-215.9775 493.7416,-205.9775 486.7416,-205.9774"/>
</g>
<!-- StMonacoDiffEditorComponent  -->
<g id="node6" class="node">
<title>StMonacoDiffEditorComponent </title>
<polygon fill="#fb8072" stroke="#000000" points="420.1924,-252 219.8076,-252 219.8076,-216 420.1924,-216 420.1924,-252"/>
<text text-anchor="middle" x="320" y="-229.8" font-family="Times,serif" font-size="14.00" fill="#000000">StMonacoDiffEditorComponent </text>
</g>
<!-- StMonacoEditorModule&#45;&gt;StMonacoDiffEditorComponent  -->
<g id="edge5" class="edge">
<title>StMonacoEditorModule&#45;&gt;StMonacoDiffEditorComponent </title>
<path fill="none" stroke="#000000" stroke-dasharray="5,2" d="M320,-187.1061C320,-187.1061 320,-205.991 320,-205.991"/>
<polygon fill="#000000" stroke="#000000" points="316.5001,-205.9909 320,-215.991 323.5001,-205.991 316.5001,-205.9909"/>
</g>
<!-- StMonacoEditorComponent  -->
<g id="node7" class="node">
<title>StMonacoEditorComponent </title>
<polygon fill="#fb8072" stroke="#000000" points="201.8742,-252 24.1258,-252 24.1258,-216 201.8742,-216 201.8742,-252"/>
<text text-anchor="middle" x="113" y="-229.8" font-family="Times,serif" font-size="14.00" fill="#000000">StMonacoEditorComponent </text>
</g>
<!-- StMonacoEditorModule&#45;&gt;StMonacoEditorComponent  -->
<g id="edge6" class="edge">
<title>StMonacoEditorModule&#45;&gt;StMonacoEditorComponent </title>
<path fill="none" stroke="#000000" stroke-dasharray="5,2" d="M243.9005,-175C175.7911,-175 86.6044,-175 86.6044,-175 86.6044,-175 86.6044,-205.9775 86.6044,-205.9775"/>
<polygon fill="#000000" stroke="#000000" points="83.1045,-205.9774 86.6044,-215.9775 90.1045,-205.9775 83.1045,-205.9774"/>
</g>
</g>
</svg>
